<?xml version="1.0" standalone="no"?><!DOCTYPE svg PUBLIC "-//W3C//DTD SVG 1.1//EN" "http://www.w3.org/Graphics/SVG/1.1/DTD/svg11.dtd"><svg t="1518069704353" class="icon" style="" viewBox="0 0 1024 1024" version="1.1" xmlns="http://www.w3.org/2000/svg" p-id="2557" xmlns:xlink="http://www.w3.org/1999/xlink" width="200" height="200"><defs><style type="text/css"></style></defs><path d="M317.276471 127.049253 135.664603 127.049253c-22.289288 0-40.362634 18.073146-40.362634 40.360036l0 686.094028c0 22.288888 18.073146 40.362634 40.362634 40.362634l181.611867 0c22.284291 0 40.362434-18.073746 40.362434-40.362634L357.638905 167.409289C357.633508 145.122599 339.560762 127.049253 317.276471 127.049253zM226.467839 813.145879c-38.998359 0-70.624916-31.631554-70.624916-70.624916 0-39.003356 31.626557-70.629913 70.624916-70.629913 39.003955 0 70.624916 31.626557 70.624916 70.629913C297.092755 781.514525 265.471794 813.145879 226.467839 813.145879zM317.276471 530.636221c0 22.289887-18.072747 40.356438-40.362634 40.356438L176.021641 570.992659c-22.289288 0-40.357038-18.066751-40.357038-40.356438L135.664603 207.768925c0-22.289288 18.06775-40.359636 40.357038-40.359636l100.892395 0c22.289887 0 40.362634 18.070148 40.362634 40.359636L317.27667 530.636221zM176.021641 248.125963l100.892395 0L276.914036 207.768925 176.021641 207.768925 176.021641 248.125963zM176.021641 409.565107l100.892395 0 0-40.362434L176.021641 369.202673 176.021641 409.565107zM176.021641 328.840038l100.892395 0 0-40.357038L176.021641 288.483001 176.021641 328.840038zM458.5313 328.840038l100.898391 0 0-40.357038-100.898391 0L458.5313 328.840038zM741.042157 248.125963l100.897392 0L841.939549 207.768925l-100.897392 0L741.042157 248.125963zM741.042157 328.840038l100.897392 0 0-40.357038-100.897392 0L741.042157 328.840038zM882.296987 127.049253l-181.617263 0c-22.284891 0-40.357638 18.073146-40.357638 40.360036l0 686.094028c0 22.288888 18.072747 40.362634 40.357638 40.362634l181.617263 0c22.288888 0 40.356638-18.073746 40.356638-40.362634L922.653625 167.409289C922.653625 145.122599 904.585875 127.049253 882.296987 127.049253zM791.487755 813.145879c-38.998559 0-70.629913-31.631554-70.629913-70.624916 0-39.003356 31.631354-70.629913 70.629913-70.629913 38.998559 0 70.630912 31.626557 70.630912 70.629913C862.118668 781.514525 830.486314 813.145879 791.487755 813.145879zM882.296987 530.636221c0 22.289887-18.073746 40.356438-40.357438 40.356438l-100.903388 0c-22.283892 0-40.356438-18.066751-40.356438-40.356438L700.679723 207.768925c0-22.289288 18.072747-40.359636 40.356438-40.359636l100.903388 0c22.283892 0 40.357438 18.070148 40.357438 40.359636L882.296987 530.636221zM458.5313 409.565107l100.898391 0 0-40.362434-100.898391 0L458.5313 409.565107zM458.5313 248.125963l100.898391 0L559.429691 207.768925l-100.898391 0L458.5313 248.125963zM599.786329 127.049253l-181.611867 0c-22.289288 0-40.362035 18.073146-40.362035 40.360036l0 686.094028c0 22.288888 18.072747 40.362634 40.362035 40.362634l181.611867 0c22.289887 0 40.357638-18.073746 40.357638-40.362634L640.143966 167.409289C640.143767 145.122599 622.076016 127.049253 599.786329 127.049253zM508.978097 813.145879c-38.998559 0-70.624916-31.631554-70.624916-70.624916 0-39.003356 31.626557-70.629913 70.624916-70.629913s70.629913 31.626557 70.629913 70.629913C579.60801 781.514525 547.976456 813.145879 508.978097 813.145879zM599.786329 530.636221c0 22.289887-18.072747 40.356438-40.356438 40.356438l-100.898391 0c-22.289288 0-40.357038-18.066751-40.357038-40.356438L418.174462 207.768925c0-22.289288 18.06775-40.359636 40.357038-40.359636l100.898391 0c22.283892 0 40.356438 18.070148 40.356438 40.359636L599.786329 530.636221zM741.042157 409.565107l100.897392 0 0-40.362434-100.897392 0L741.042157 409.565107z" p-id="2558" fill="#1296db"></path></svg>