<?xml version="1.0" standalone="no"?><!DOCTYPE svg PUBLIC "-//W3C//DTD SVG 1.1//EN" "http://www.w3.org/Graphics/SVG/1.1/DTD/svg11.dtd"><svg t="1521686804758" class="icon" style="" viewBox="0 0 1024 1024" version="1.1" xmlns="http://www.w3.org/2000/svg" p-id="14948" xmlns:xlink="http://www.w3.org/1999/xlink" width="200" height="200"><defs><style type="text/css"></style></defs><path d="M591.134 901.603H332.077c-35.629 0-64.623-28.91-64.623-64.426V316.296c0-35.516 28.994-64.398 64.623-64.398h387.738c35.602 0 64.596 28.883 64.596 64.398v270.576c0 16.092 13.184 29.191 29.418 29.191 16.232 0 29.389-13.1 29.389-29.191V316.296c0-67.701-55.363-122.811-123.402-122.811h-7.729c0.508-2.15 0.784-4.387 0.784-6.689 0-67.701-55.363-122.781-123.402-122.781H201.702c-68.039 0-123.375 55.08-123.375 122.781v520.908c0 67.729 55.336 122.811 123.375 122.811 2.403 0 4.737-0.293 6.973-0.834v7.496c0 67.756 55.363 122.809 123.402 122.809h259.057c16.234 0 29.391-13.043 29.391-29.191-0.001-16.122-13.157-29.192-29.391-29.192zM208.675 316.296v456.641a29.609 29.609 0 0 0-6.973-0.834c-35.602 0-64.566-28.883-64.566-64.398V186.796c0-35.488 28.965-64.398 64.566-64.398h387.766c35.629 0 64.596 28.91 64.596 64.398 0 2.302 0.276 4.54 0.784 6.689H332.077c-68.039 0-123.402 55.11-123.402 122.811z m707.607 395.248H707.704c-16.232 0-29.389 13.072-29.389 29.191 0 16.148 13.156 29.193 29.389 29.193h208.578c16.234 0 29.391-13.045 29.391-29.193 0-16.119-13.156-29.191-29.391-29.191zM759.849 901.603h-52.145c-16.232 0-29.389 13.07-29.389 29.191 0 16.148 13.156 29.191 29.389 29.191h52.145c16.234 0 29.418-13.043 29.418-29.191 0-16.121-13.184-29.191-29.418-29.191z m78.23-95.03H707.733c-16.234 0-29.418 13.07-29.418 29.191 0 16.148 13.184 29.191 29.418 29.191h130.346c16.234 0 29.391-13.043 29.391-29.191 0-16.12-13.157-29.191-29.391-29.191zM587.437 390.038c-16.262 0-29.418 13.07-29.418 29.191v315.014c0 16.119 13.156 29.191 29.418 29.191a29.494 29.494 0 0 0 20.777-8.525l101.41-100.732c0.227-0.254 0.48-0.48 0.705-0.734 11.293-11.574 10.955-30.096-0.705-41.275-11.688-11.207-30.293-10.896-41.586 0.707l-51.213 50.873V419.229c0-16.121-13.183-29.191-29.388-29.191zM464.458 763.435c16.232 0 29.389-13.072 29.416-29.191V419.229a29.137 29.137 0 0 0-8.582-20.553c-11.461-11.463-30.096-11.49-41.613-0.084l-101.381 100.73c-11.49 11.406-11.463 29.898 0.027 41.305 11.463 11.404 30.096 11.404 41.559-0.029l51.184-50.846v244.49c-0.001 16.12 13.156 29.193 29.39 29.193z" fill="#666666" p-id="14949"></path></svg>