<?xml version="1.0" standalone="no"?><!DOCTYPE svg PUBLIC "-//W3C//DTD SVG 1.1//EN" "http://www.w3.org/Graphics/SVG/1.1/DTD/svg11.dtd"><svg t="1521685701634" class="icon" style="" viewBox="0 0 1024 1024" version="1.1" xmlns="http://www.w3.org/2000/svg" p-id="2379" xmlns:xlink="http://www.w3.org/1999/xlink" width="200" height="200"><defs><style type="text/css"></style></defs><path d="M512 416m-224 0a224 224 0 1 0 448 0 224 224 0 1 0-448 0Z" fill="#3BB273" p-id="2380"></path><path d="M745.6 620.8c-64 60.8-147.2 96-233.6 96s-169.6-35.2-233.6-96C166.4 681.6 96 784 96 928h832c0-144-73.6-246.4-182.4-307.2zM256 544V288c-6.4 0-9.6 0-16 3.2C278.4 176 387.2 96 512 96c124.8 0 233.6 80 272 192H768v256c70.4 0 128-57.6 128-128 0-51.2-32-96-76.8-115.2C784 163.2 659.2 64 512 64s-272 99.2-307.2 236.8C160 320 128 364.8 128 416c0 70.4 57.6 128 128 128z" fill="#3BB273" p-id="2381"></path></svg>