<?xml version="1.0" standalone="no"?><!DOCTYPE svg PUBLIC "-//W3C//DTD SVG 1.1//EN" "http://www.w3.org/Graphics/SVG/1.1/DTD/svg11.dtd"><svg class="icon" width="200px" height="200.00px" viewBox="0 0 1024 1024" version="1.1" xmlns="http://www.w3.org/2000/svg"><path fill="#1296DB" d="M738.178419 602.968207c24.300651-9.272617 52.88589-4.092741 72.454308 15.475677l192.742529 192.67858c26.602818 26.666767 26.602818 69.768447 0 96.371264l-96.371265 96.371264a68.105771 68.105771 0 0 1-96.371264 0l-192.67858-192.742528a68.16972 68.16972 0 0 1-15.475677-72.454309l-338.482484-413.750551-141.83906-9.592362L0.14208 79.992626 79.502889 0.631817l235.332616 122.014846 9.592362 141.83906 413.750552 338.482484z"  /><path fill="#1296DB" d="M262.780954 969.588285a135.572051 135.572051 0 0 1-204.317313 14.516442l-18.609182-18.545234a135.572051 135.572051 0 0 1 14.516441-204.381261l590.761606-443.103179c-50.647672-78.977114-40.671615-186.091824 29.416577-256.243966A206.107887 206.107887 0 0 1 923.886548 28.129922l-105.515982 105.515982a50.839519 50.839519 0 0 0 71.878766 71.878767l105.515983-105.515983a206.107887 206.107887 0 0 1-33.637216 249.337465c-70.088192 70.088192-177.266851 80.064249-256.243966 29.416577l-443.167128 590.761606z m-165.692068-42.717985a67.786025 67.786025 0 1 0 95.859672-95.859672 67.786025 67.786025 0 0 0-95.923621 95.923621z"  /></svg>