<?xml version="1.0" standalone="no"?><!DOCTYPE svg PUBLIC "-//W3C//DTD SVG 1.1//EN" "http://www.w3.org/Graphics/SVG/1.1/DTD/svg11.dtd"><svg t="1518146768757" class="icon" style="" viewBox="0 0 1024 1024" version="1.1" xmlns="http://www.w3.org/2000/svg" p-id="12806" xmlns:xlink="http://www.w3.org/1999/xlink" width="200" height="200"><defs><style type="text/css"></style></defs><path d="M681.239919 488.273455c-11.580768 0-21.004929 9.424162-21.004929 21.024323l0 59.33899c0 11.575596 9.424162 21.030788 21.004929 21.030788 11.606626 0 21.030788-9.455192 21.030788-21.030788L702.270707 509.297778C702.270707 497.697616 692.846545 488.273455 681.239919 488.273455z" p-id="12807" fill="#ffa000"></path><path d="M638.599111 595.949899 507.335758 595.949899l26.732606-26.757172c8.176485-8.207515 8.176485-21.531152 0-29.742545-3.979636-3.949899-9.252202-6.131071-14.873859-6.131071-5.626828 0-10.92396 2.181172-14.873859 6.131071l-65.36404 65.393778c-3.979636 4.000323-6.155636 9.241859-6.155636 14.868687 0 5.625535 2.176 10.894222 6.155636 14.873859l68.935111 68.93899c3.449535 3.494788 7.985131 5.571232 12.818101 6.030222l-120.899232 0c-12.818101 0-15.40396-10.621414-15.959919-15.202263l0.046545-191.186747c0-11.600162-9.45002-21.024323-21.051475-21.024323-11.575596 0-20.999758 9.424162-20.999758 21.024323l0.045253 193.111919c1.550222 19.40299 15.631515 55.328323 57.919354 55.328323l244.080485-0.09697c0.025859 0 2.081616 0.253414 5.096727 0.253414 8.232081 0 23.938586-1.702788 36.655838-12.974545 7.576566-6.712889 16.621899-19.25301 16.621899-40.914747l0-55.439515C702.270707 626.354424 688.967758 595.949899 638.599111 595.949899zM660.209131 697.874101c0 6.308202-1.519192 8.666505-2.428121 9.474586-1.621333 1.444202-5.046303 2.333737-9.197899 2.333737-0.908929 0-1.722182-0.081455-2.408727-0.126707l-121.408646 0c4.867879-0.45899 9.347879-2.535434 12.847838-6.030222 8.181657-8.237253 8.181657-21.566061 0-29.747717l-35.847758-35.823192 136.833293 0c18.271677 0 21.736727 5.60097 21.767758 5.651394L660.209131 697.874101z" p-id="12808" fill="#ffa000"></path><path d="M561.351758 289.338182c-9.910303-9.949091-24.122182-15.645737-38.96501-15.645737-14.823434 0-29.035313 5.696646-38.96501 15.621172L277.668848 495.061333c-8.181657 8.181657-8.181657 21.509172 0 29.716687 3.980929 3.979636 9.272889 6.156929 14.873859 6.156929 5.621657 0 10.920081-2.201859 14.894545-6.156929L513.164283 319.016081c2.283313-2.278141 5.651394-3.607273 9.222465-3.607273 3.595636 0 6.989576 1.329131 9.222465 3.647354L738.043475 525.464566c4.004202 3.955071 9.272889 6.156929 14.868687 6.156929 5.625535 0 10.918788-2.201859 14.873859-6.156929 8.211394-8.206222 8.211394-21.53503 0-29.716687L561.351758 289.338182z" p-id="12809" fill="#ffa000"></path><path d="M511.987717 67.232323C266.320808 67.232323 66.457212 267.111434 66.457212 512.773172c0 245.666909 199.863596 445.530505 445.530505 445.530505 245.661737 0 445.555071-199.863596 445.555071-445.530505C957.542788 267.111434 757.649455 67.232323 511.987717 67.232323zM898.568404 512.747313c0 213.121293-173.424485 386.521212-386.570343 386.521212-213.147152 0-386.571636-173.399919-386.571636-386.521212 0-213.161374 173.424485-386.570343 386.571636-386.570343C725.143919 126.17697 898.568404 299.585939 898.568404 512.747313z" p-id="12810" fill="#ffa000"></path></svg>