<?xml version="1.0" standalone="no"?><!DOCTYPE svg PUBLIC "-//W3C//DTD SVG 1.1//EN" "http://www.w3.org/Graphics/SVG/1.1/DTD/svg11.dtd"><svg t="1513222750023" class="icon" style="" viewBox="0 0 1024 1024" version="1.1" xmlns="http://www.w3.org/2000/svg" p-id="6203" xmlns:xlink="http://www.w3.org/1999/xlink" width="200" height="200"><defs><style type="text/css"></style></defs><path d="M188.643328 244.955136c0-44.542976 36.11136-80.65024 80.649216-80.65024h146.13504v-35.238912H261.11488c-59.384832 0-107.527168 48.13824-107.527168 107.523072v186.052608h35.055616V244.955136z m645.195776 0v177.686528h36.570112V236.59008c0-59.384832-48.13824-107.523072-107.524096-107.523072H606.220288v35.238912h146.968576c44.542976 0 80.65024 36.107264 80.65024 80.649216zM189.223936 777.17504V599.49056h-35.05152v186.053632c0 59.384832 48.14336 107.518976 107.523072 107.518976h154.312704v-35.233792H269.878272c-44.547072 0.001024-80.654336-36.107264-80.654336-80.654336z m645.195776 0c0 44.547072-36.108288 80.65536-80.646144 80.65536H606.800896v35.233792h156.669952c59.383808 0 107.517952-48.134144 107.517952-107.518976V599.49056h-36.569088v177.68448z m40.230912-279.691264H149.346304c-10.631168 0-19.245056 8.619008-19.245056 19.247104 0 10.630144 8.613888 19.245056 19.245056 19.245056h725.305344c10.630144 0 19.249152-8.614912 19.249152-19.245056-0.001024-10.628096-8.620032-19.247104-19.250176-19.247104z" fill="#040000" p-id="6204"></path></svg>