<?xml version="1.0" standalone="no"?><!DOCTYPE svg PUBLIC "-//W3C//DTD SVG 1.1//EN" "http://www.w3.org/Graphics/SVG/1.1/DTD/svg11.dtd"><svg t="1518147983370" class="icon" style="" viewBox="0 0 1024 1024" version="1.1" xmlns="http://www.w3.org/2000/svg" p-id="2271" xmlns:xlink="http://www.w3.org/1999/xlink" width="200" height="200"><defs><style type="text/css"></style></defs><path d="M853.312 0l-614.4 0 0 136.512 546.112 0L785.024 819.2 921.6 819.2 921.6 68.288 853.312 0zM819.2 102.4 819.2 34.112 887.488 102.4 819.2 102.4z" p-id="2272" fill="#ffa000"></path><path d="M102.4 204.8 102.4 1024l614.4 0L716.8 273.088 648.512 204.8 102.4 204.8zM599.424 868.288 219.776 868.288c-18.752 0-34.112-15.36-34.112-34.176 0-18.752 15.36-34.112 34.112-34.112l379.584 0c18.752 0 34.176 15.36 34.176 34.112C633.536 852.928 618.176 868.288 599.424 868.288zM599.424 721.792 219.776 721.792c-18.752 0-34.112-15.36-34.112-34.112 0-18.752 15.36-34.176 34.112-34.176l379.584 0c18.752 0 34.176 15.36 34.176 34.176C633.536 706.432 618.176 721.792 599.424 721.792zM599.424 575.296 219.776 575.296c-18.752 0-34.112-15.36-34.112-34.176 0-18.752 15.36-34.112 34.112-34.112l379.584 0c18.752 0 34.176 15.36 34.176 34.112C633.536 559.936 618.176 575.296 599.424 575.296zM599.424 428.8 219.776 428.8c-18.752 0-34.112-15.36-34.112-34.176s15.36-34.176 34.112-34.176l379.584 0c18.752 0 34.176 15.36 34.176 34.176S618.176 428.8 599.424 428.8zM614.4 307.2 614.4 238.912 682.688 307.2 614.4 307.2z" p-id="2273" fill="#ffa000"></path></svg>