<?xml version="1.0" standalone="no"?><!DOCTYPE svg PUBLIC "-//W3C//DTD SVG 1.1//EN" "http://www.w3.org/Graphics/SVG/1.1/DTD/svg11.dtd"><svg class="icon" width="200px" height="200.00px" viewBox="0 0 1024 1024" version="1.1" xmlns="http://www.w3.org/2000/svg"><path fill="#1296DB" d="M897.923 419.894c40.702-40.747 61.337-90.475 61.337-147.805 0-57.335-20.635-107.057-61.337-147.79-40.693-40.756-90.365-61.422-147.638-61.422-28.287 0-55.751 5.609-81.63 16.664-25.874 11.049-48.266 26.109-66.549 44.765-18.272 18.64-33.134 41.042-44.162 66.588-11.042 25.552-16.644 52.871-16.644 81.196v209.219h208.986c57.262-0.002 106.932-20.664 147.637-61.415z m-288.89-147.806c0-39.156 13.847-72.879 41.152-100.223 27.315-27.337 60.82-41.197 99.582-41.197 38.78 0 72.458 13.86 100.1 41.199 27.655 27.35 41.674 60.901 41.674 99.714 0 38.818-14.023 72.541-41.676 100.225-27.646 27.673-61.151 41.708-99.58 41.708H609.033V272.088z m245.735 296.895c-32.092-18.297-67.248-27.572-104.487-27.572H541.294v208.171c0 22.763 3.499 45.161 10.397 66.596 6.903 21.424 16.884 40.872 29.653 57.803 12.756 16.917 27.964 31.967 45.195 44.727 17.262 12.789 36.681 22.781 57.72 29.684 21.061 6.91 43.275 10.411 66.025 10.411 57.259 0 106.929-20.488 147.629-60.894 40.704-40.397 61.346-90.303 61.346-148.323 0-37.302-9.443-72.492-28.072-104.599-18.627-32.124-44.334-57.696-76.419-76.004z m25.594 236.052c-7.418 17.217-17.679 32.453-30.497 45.296-12.803 12.821-28.022 23.088-45.24 30.531-17.17 7.416-35.452 11.177-54.34 11.177-39.107 0-72.781-14.028-100.091-41.703-27.31-27.682-41.161-61.577-41.161-100.749V608.155h141.252c18.857 0 37.136 3.763 54.34 11.19 17.217 7.432 32.437 17.706 45.24 30.535 12.812 12.827 23.072 28.067 30.497 45.294 7.414 17.211 11.174 35.687 11.174 54.925 0.001 19.242-3.76 37.725-11.174 54.936zM124.675 602.289c-40.704 40.406-61.342 89.969-61.342 147.297 0 58.007 20.638 107.91 61.342 148.321 40.702 40.409 90.377 60.896 147.644 60.896 57.256 0 106.931-20.488 147.631-60.896 40.704-40.402 61.342-90.303 61.342-148.321V541.402H272.319c-57.267 0-106.942 20.487-147.644 60.887z m288.894 147.297c0 39.174-13.849 73.076-41.166 100.749-27.297 27.675-60.798 41.703-99.573 41.703s-72.456-14.035-100.1-41.708c-27.646-27.682-41.665-61.405-41.665-100.227 0-38.823 14.019-72.543 41.665-100.225 27.648-27.684 61.158-41.723 99.589-41.723h141.25v141.431z m-141.25-686.71c-37.967 0-73.3 9.459-105.016 28.114-31.722 18.633-57.259 44.192-75.896 75.972-18.626 31.779-28.074 66.977-28.074 104.62 0 37.629 9.445 72.996 28.069 105.117 18.633 32.126 44.169 57.861 75.896 76.494 31.74 18.655 67.078 28.116 105.021 28.116h208.973V272.088c0-57.335-20.638-107.059-61.333-147.79-40.695-40.755-90.37-61.422-147.64-61.422z m141.25 350.639h-141.25c-38.438 0-71.945-14.035-99.591-41.708-27.648-27.689-41.665-61.407-41.665-100.225 0-38.823 14.017-72.371 41.658-99.714 27.648-27.339 61.328-41.199 100.106-41.199 38.776 0 72.281 13.858 99.585 41.19 27.312 27.341 41.157 61.064 41.157 100.23v141.426z"  /></svg>