<?xml version="1.0" standalone="no"?><!DOCTYPE svg PUBLIC "-//W3C//DTD SVG 1.1//EN" "http://www.w3.org/Graphics/SVG/1.1/DTD/svg11.dtd"><svg class="icon" width="200px" height="200.00px" viewBox="0 0 1024 1024" version="1.1" xmlns="http://www.w3.org/2000/svg"><path fill="#1296DB" d="M906.24 129.024H117.76c-65.024 0-117.76 52.736-117.76 117.76v530.432c0 65.024 52.736 117.76 117.76 117.76h788.48c65.024 0 117.76-52.736 117.76-117.76V246.784c0-65.024-52.736-117.76-117.76-117.76m-250.368 233.984h163.84c12.8 0 25.088 17.92 25.088 30.72s-11.776 30.72-25.088 30.72h-163.84c-12.8 0-25.088-17.92-25.088-30.72 0-13.312 11.776-30.72 25.088-30.72m0 131.072h163.84c12.8 0 25.088 17.92 25.088 30.72s-11.776 30.72-25.088 30.72h-163.84c-12.8 0-25.088-17.92-25.088-30.72s11.776-30.72 25.088-30.72M121.344 722.432c-12.8-2.56-20.992-14.848-18.944-27.648 15.36-79.36 74.24-140.8 149.504-162.304-38.912-20.992-65.536-61.44-65.536-108.544 0-68.096 55.296-123.392 123.392-123.392s123.392 55.296 123.392 123.392c0 47.104-26.624 87.552-65.536 108.544 74.752 21.504 134.144 82.944 149.504 162.816 2.56 12.8-6.144 25.088-18.944 27.648-1.536 0.512-3.072 0.512-4.608 0.512l-372.224-1.024z m776.704-35.84h-242.176c-12.8 0-25.088-17.92-25.088-30.72s11.776-30.72 25.088-30.72h242.176c12.8 0 25.088 17.92 25.088 30.72 0 13.312-11.776 30.72-25.088 30.72m0 0"  /></svg>